<mxfile host="app.diagrams.net" modified="2020-11-08T03:49:38.377Z" agent="5.0 (Macintosh; Intel Mac OS X 10_14_6) AppleWebKit/537.36 (KHTML, like Gecko) Chrome/86.0.4240.111 Safari/537.36" etag="RmbsZ0s_GzoVjFRwA3qo" version="13.9.2" type="github">
  <diagram id="OetNqehpfH3lyW26qQmy" name="Page-1">
    <mxGraphModel dx="786" dy="439" grid="1" gridSize="10" guides="1" tooltips="1" connect="1" arrows="1" fold="1" page="1" pageScale="1" pageWidth="850" pageHeight="1100" math="0" shadow="0">
      <root>
        <mxCell id="0" />
        <mxCell id="1" parent="0" />
        <mxCell id="Pfn347-1Jo6gLOCdynuy-36" value="" style="rounded=0;whiteSpace=wrap;html=1;" vertex="1" parent="1">
          <mxGeometry x="550" y="10" width="170" height="360" as="geometry" />
        </mxCell>
        <mxCell id="Pfn347-1Jo6gLOCdynuy-8" value="" style="group" vertex="1" connectable="0" parent="1">
          <mxGeometry x="20" y="10" width="200" height="390" as="geometry" />
        </mxCell>
        <mxCell id="Pfn347-1Jo6gLOCdynuy-6" value="" style="rounded=0;whiteSpace=wrap;html=1;" vertex="1" parent="Pfn347-1Jo6gLOCdynuy-8">
          <mxGeometry width="200" height="360" as="geometry" />
        </mxCell>
        <mxCell id="Pfn347-1Jo6gLOCdynuy-3" value="App Server" style="rounded=0;whiteSpace=wrap;html=1;align=center;" vertex="1" parent="Pfn347-1Jo6gLOCdynuy-8">
          <mxGeometry x="40" y="30" width="130" height="90" as="geometry" />
        </mxCell>
        <mxCell id="Pfn347-1Jo6gLOCdynuy-4" value="Image Metadata" style="shape=cylinder3;whiteSpace=wrap;html=1;boundedLbl=1;backgroundOutline=1;size=15;" vertex="1" parent="Pfn347-1Jo6gLOCdynuy-8">
          <mxGeometry x="70" y="150" width="60" height="80" as="geometry" />
        </mxCell>
        <mxCell id="Pfn347-1Jo6gLOCdynuy-5" value="Image Object Storage" style="ellipse;shape=cloud;whiteSpace=wrap;html=1;" vertex="1" parent="Pfn347-1Jo6gLOCdynuy-8">
          <mxGeometry x="-10" y="250" width="187" height="100" as="geometry" />
        </mxCell>
        <mxCell id="Pfn347-1Jo6gLOCdynuy-7" value="Upload Service" style="text;html=1;strokeColor=none;fillColor=none;align=center;verticalAlign=middle;whiteSpace=wrap;rounded=0;" vertex="1" parent="Pfn347-1Jo6gLOCdynuy-8">
          <mxGeometry x="50" y="370" width="100" height="20" as="geometry" />
        </mxCell>
        <mxCell id="Pfn347-1Jo6gLOCdynuy-12" value="" style="group" vertex="1" connectable="0" parent="1">
          <mxGeometry x="290" y="10" width="215" height="430" as="geometry" />
        </mxCell>
        <mxCell id="Pfn347-1Jo6gLOCdynuy-10" value="" style="rounded=0;whiteSpace=wrap;html=1;" vertex="1" parent="Pfn347-1Jo6gLOCdynuy-12">
          <mxGeometry width="215" height="358.33333333333337" as="geometry" />
        </mxCell>
        <mxCell id="Pfn347-1Jo6gLOCdynuy-9" value="App Server" style="rounded=0;whiteSpace=wrap;html=1;" vertex="1" parent="Pfn347-1Jo6gLOCdynuy-12">
          <mxGeometry x="30" y="53.75" width="140" height="96.25" as="geometry" />
        </mxCell>
        <mxCell id="Pfn347-1Jo6gLOCdynuy-11" value="View Service" style="text;html=1;strokeColor=none;fillColor=none;align=center;verticalAlign=middle;whiteSpace=wrap;rounded=0;" vertex="1" parent="Pfn347-1Jo6gLOCdynuy-12">
          <mxGeometry x="65" y="363.1666666666667" width="90" height="35.833333333333336" as="geometry" />
        </mxCell>
        <mxCell id="Pfn347-1Jo6gLOCdynuy-13" value="" style="endArrow=classic;html=1;edgeStyle=orthogonalEdgeStyle;exitX=0;exitY=0.5;exitDx=0;exitDy=0;entryX=1;entryY=0.5;entryDx=0;entryDy=0;entryPerimeter=0;" edge="1" parent="1" source="Pfn347-1Jo6gLOCdynuy-10" target="Pfn347-1Jo6gLOCdynuy-4">
          <mxGeometry width="50" height="50" relative="1" as="geometry">
            <mxPoint x="410" y="110" as="sourcePoint" />
            <mxPoint x="430" y="180" as="targetPoint" />
          </mxGeometry>
        </mxCell>
        <mxCell id="Pfn347-1Jo6gLOCdynuy-17" value="" style="endArrow=classic;html=1;edgeStyle=orthogonalEdgeStyle;exitX=0;exitY=0.75;exitDx=0;exitDy=0;entryX=1;entryY=0.75;entryDx=0;entryDy=0;" edge="1" parent="1" source="Pfn347-1Jo6gLOCdynuy-10" target="Pfn347-1Jo6gLOCdynuy-6">
          <mxGeometry width="50" height="50" relative="1" as="geometry">
            <mxPoint x="510" y="270" as="sourcePoint" />
            <mxPoint x="333" y="310" as="targetPoint" />
            <Array as="points">
              <mxPoint x="290" y="280" />
            </Array>
          </mxGeometry>
        </mxCell>
        <mxCell id="Pfn347-1Jo6gLOCdynuy-24" value="" style="group" vertex="1" connectable="0" parent="1">
          <mxGeometry x="762" y="12" width="200" height="400" as="geometry" />
        </mxCell>
        <mxCell id="Pfn347-1Jo6gLOCdynuy-20" value="" style="rounded=0;whiteSpace=wrap;html=1;" vertex="1" parent="Pfn347-1Jo6gLOCdynuy-24">
          <mxGeometry width="200" height="357.14285714285705" as="geometry" />
        </mxCell>
        <mxCell id="Pfn347-1Jo6gLOCdynuy-23" value="" style="group" vertex="1" connectable="0" parent="Pfn347-1Jo6gLOCdynuy-24">
          <mxGeometry x="20" y="42.85714285714285" width="160" height="357.14285714285705" as="geometry" />
        </mxCell>
        <mxCell id="Pfn347-1Jo6gLOCdynuy-18" value="App Server" style="rounded=0;whiteSpace=wrap;html=1;" vertex="1" parent="Pfn347-1Jo6gLOCdynuy-23">
          <mxGeometry x="-11" y="-10" width="160" height="85.7142857142857" as="geometry" />
        </mxCell>
        <mxCell id="Pfn347-1Jo6gLOCdynuy-21" value="News Feed Service" style="text;html=1;strokeColor=none;fillColor=none;align=center;verticalAlign=middle;whiteSpace=wrap;rounded=0;" vertex="1" parent="Pfn347-1Jo6gLOCdynuy-23">
          <mxGeometry x="10" y="328.57" width="123.33" height="28.57" as="geometry" />
        </mxCell>
        <mxCell id="Pfn347-1Jo6gLOCdynuy-19" value="User Data" style="shape=cylinder3;whiteSpace=wrap;html=1;boundedLbl=1;backgroundOutline=1;size=15;" vertex="1" parent="Pfn347-1Jo6gLOCdynuy-24">
          <mxGeometry x="70" y="179.99999999999994" width="80" height="114.28571428571426" as="geometry" />
        </mxCell>
        <mxCell id="Pfn347-1Jo6gLOCdynuy-22" value="" style="endArrow=classic;html=1;edgeStyle=orthogonalEdgeStyle;exitX=0.75;exitY=1;exitDx=0;exitDy=0;entryX=0.5;entryY=1;entryDx=0;entryDy=0;entryPerimeter=0;" edge="1" parent="1" source="Pfn347-1Jo6gLOCdynuy-10" target="Pfn347-1Jo6gLOCdynuy-19">
          <mxGeometry width="50" height="50" relative="1" as="geometry">
            <mxPoint x="470" y="310" as="sourcePoint" />
            <mxPoint x="520" y="260" as="targetPoint" />
            <Array as="points">
              <mxPoint x="451" y="440" />
              <mxPoint x="872" y="440" />
            </Array>
          </mxGeometry>
        </mxCell>
        <mxCell id="Pfn347-1Jo6gLOCdynuy-25" value="Actor" style="shape=umlActor;verticalLabelPosition=bottom;verticalAlign=top;html=1;outlineConnect=0;" vertex="1" parent="1">
          <mxGeometry x="55" y="490" width="30" height="60" as="geometry" />
        </mxCell>
        <mxCell id="Pfn347-1Jo6gLOCdynuy-29" value="" style="endArrow=classic;html=1;edgeStyle=orthogonalEdgeStyle;exitX=0.5;exitY=0;exitDx=0;exitDy=0;exitPerimeter=0;entryX=0.25;entryY=1;entryDx=0;entryDy=0;" edge="1" parent="1" source="Pfn347-1Jo6gLOCdynuy-25" target="Pfn347-1Jo6gLOCdynuy-6">
          <mxGeometry width="50" height="50" relative="1" as="geometry">
            <mxPoint x="170" y="500" as="sourcePoint" />
            <mxPoint x="220" y="450" as="targetPoint" />
          </mxGeometry>
        </mxCell>
        <mxCell id="Pfn347-1Jo6gLOCdynuy-30" value="Actor" style="shape=umlActor;verticalLabelPosition=bottom;verticalAlign=top;html=1;outlineConnect=0;" vertex="1" parent="1">
          <mxGeometry x="280" y="480" width="30" height="60" as="geometry" />
        </mxCell>
        <mxCell id="Pfn347-1Jo6gLOCdynuy-31" value="" style="endArrow=classic;html=1;edgeStyle=orthogonalEdgeStyle;exitX=0.5;exitY=0;exitDx=0;exitDy=0;exitPerimeter=0;entryX=0.25;entryY=1;entryDx=0;entryDy=0;" edge="1" parent="1" source="Pfn347-1Jo6gLOCdynuy-30" target="Pfn347-1Jo6gLOCdynuy-10">
          <mxGeometry width="50" height="50" relative="1" as="geometry">
            <mxPoint x="290" y="530" as="sourcePoint" />
            <mxPoint x="320" y="370" as="targetPoint" />
            <Array as="points">
              <mxPoint x="295" y="430" />
              <mxPoint x="344" y="430" />
            </Array>
          </mxGeometry>
        </mxCell>
        <mxCell id="Pfn347-1Jo6gLOCdynuy-32" value="Actor" style="shape=umlActor;verticalLabelPosition=bottom;verticalAlign=top;html=1;outlineConnect=0;" vertex="1" parent="1">
          <mxGeometry x="720" y="480" width="30" height="60" as="geometry" />
        </mxCell>
        <mxCell id="Pfn347-1Jo6gLOCdynuy-33" value="" style="endArrow=classic;html=1;edgeStyle=orthogonalEdgeStyle;exitX=0.5;exitY=0;exitDx=0;exitDy=0;exitPerimeter=0;entryX=0;entryY=0.75;entryDx=0;entryDy=0;" edge="1" parent="1" source="Pfn347-1Jo6gLOCdynuy-32" target="Pfn347-1Jo6gLOCdynuy-20">
          <mxGeometry width="50" height="50" relative="1" as="geometry">
            <mxPoint x="650" y="480" as="sourcePoint" />
            <mxPoint x="650" y="440" as="targetPoint" />
          </mxGeometry>
        </mxCell>
        <mxCell id="Pfn347-1Jo6gLOCdynuy-35" value="App Server" style="rounded=0;whiteSpace=wrap;html=1;" vertex="1" parent="1">
          <mxGeometry x="575" y="80" width="120" height="60" as="geometry" />
        </mxCell>
        <mxCell id="Pfn347-1Jo6gLOCdynuy-37" value="Image Search" style="text;html=1;strokeColor=none;fillColor=none;align=center;verticalAlign=middle;whiteSpace=wrap;rounded=0;" vertex="1" parent="1">
          <mxGeometry x="590" y="383" width="95" height="20" as="geometry" />
        </mxCell>
        <mxCell id="Pfn347-1Jo6gLOCdynuy-38" value="Actor" style="shape=umlActor;verticalLabelPosition=bottom;verticalAlign=top;html=1;outlineConnect=0;" vertex="1" parent="1">
          <mxGeometry x="575" y="480" width="30" height="60" as="geometry" />
        </mxCell>
        <mxCell id="Pfn347-1Jo6gLOCdynuy-39" value="" style="endArrow=classic;html=1;edgeStyle=orthogonalEdgeStyle;entryX=0.25;entryY=1;entryDx=0;entryDy=0;exitX=0.5;exitY=0;exitDx=0;exitDy=0;exitPerimeter=0;" edge="1" parent="1" source="Pfn347-1Jo6gLOCdynuy-38" target="Pfn347-1Jo6gLOCdynuy-36">
          <mxGeometry width="50" height="50" relative="1" as="geometry">
            <mxPoint x="390" y="530" as="sourcePoint" />
            <mxPoint x="440" y="480" as="targetPoint" />
          </mxGeometry>
        </mxCell>
        <mxCell id="Pfn347-1Jo6gLOCdynuy-40" value="" style="endArrow=classic;html=1;edgeStyle=orthogonalEdgeStyle;entryX=1;entryY=0;entryDx=0;entryDy=52.5;entryPerimeter=0;" edge="1" parent="1" target="Pfn347-1Jo6gLOCdynuy-4">
          <mxGeometry width="50" height="50" relative="1" as="geometry">
            <mxPoint x="560" y="370" as="sourcePoint" />
            <mxPoint x="170" y="370" as="targetPoint" />
            <Array as="points">
              <mxPoint x="550" y="460" />
              <mxPoint x="260" y="460" />
              <mxPoint x="260" y="240" />
              <mxPoint x="150" y="240" />
            </Array>
          </mxGeometry>
        </mxCell>
        <mxCell id="Pfn347-1Jo6gLOCdynuy-43" value="App Server" style="rounded=0;whiteSpace=wrap;html=1;align=center;" vertex="1" parent="1">
          <mxGeometry x="70" y="50" width="130" height="90" as="geometry" />
        </mxCell>
        <mxCell id="Pfn347-1Jo6gLOCdynuy-44" value="App Server" style="rounded=0;whiteSpace=wrap;html=1;align=center;" vertex="1" parent="1">
          <mxGeometry x="80" y="60" width="130" height="90" as="geometry" />
        </mxCell>
        <mxCell id="Pfn347-1Jo6gLOCdynuy-45" value="App Server" style="rounded=0;whiteSpace=wrap;html=1;" vertex="1" parent="1">
          <mxGeometry x="330" y="73.75" width="140" height="96.25" as="geometry" />
        </mxCell>
        <mxCell id="Pfn347-1Jo6gLOCdynuy-46" value="App Server" style="rounded=0;whiteSpace=wrap;html=1;" vertex="1" parent="1">
          <mxGeometry x="340" y="83.75" width="140" height="96.25" as="geometry" />
        </mxCell>
        <mxCell id="Pfn347-1Jo6gLOCdynuy-47" value="App Server" style="rounded=0;whiteSpace=wrap;html=1;" vertex="1" parent="1">
          <mxGeometry x="350" y="93.75" width="140" height="96.25" as="geometry" />
        </mxCell>
        <mxCell id="Pfn347-1Jo6gLOCdynuy-48" value="App Server" style="rounded=0;whiteSpace=wrap;html=1;" vertex="1" parent="1">
          <mxGeometry x="585" y="90" width="120" height="60" as="geometry" />
        </mxCell>
        <mxCell id="Pfn347-1Jo6gLOCdynuy-49" value="App Server" style="rounded=0;whiteSpace=wrap;html=1;" vertex="1" parent="1">
          <mxGeometry x="595" y="100" width="120" height="60" as="geometry" />
        </mxCell>
        <mxCell id="Pfn347-1Jo6gLOCdynuy-52" value="App Server" style="rounded=0;whiteSpace=wrap;html=1;" vertex="1" parent="1">
          <mxGeometry x="781" y="54.85714285714285" width="160" height="85.7142857142857" as="geometry" />
        </mxCell>
        <mxCell id="Pfn347-1Jo6gLOCdynuy-53" value="App Server" style="rounded=0;whiteSpace=wrap;html=1;" vertex="1" parent="1">
          <mxGeometry x="791" y="64.85714285714285" width="160" height="85.7142857142857" as="geometry" />
        </mxCell>
        <mxCell id="Pfn347-1Jo6gLOCdynuy-55" value="Image Metadata" style="shape=cylinder3;whiteSpace=wrap;html=1;boundedLbl=1;backgroundOutline=1;size=15;" vertex="1" parent="1">
          <mxGeometry x="100" y="170" width="60" height="80" as="geometry" />
        </mxCell>
        <mxCell id="Pfn347-1Jo6gLOCdynuy-56" value="Image Metadata" style="shape=cylinder3;whiteSpace=wrap;html=1;boundedLbl=1;backgroundOutline=1;size=15;" vertex="1" parent="1">
          <mxGeometry x="110" y="180" width="60" height="80" as="geometry" />
        </mxCell>
        <mxCell id="Pfn347-1Jo6gLOCdynuy-58" value="Image Object Storage" style="ellipse;shape=cloud;whiteSpace=wrap;html=1;" vertex="1" parent="1">
          <mxGeometry x="20" y="270" width="187" height="100" as="geometry" />
        </mxCell>
        <mxCell id="Pfn347-1Jo6gLOCdynuy-59" value="User Data" style="shape=cylinder3;whiteSpace=wrap;html=1;boundedLbl=1;backgroundOutline=1;size=15;" vertex="1" parent="1">
          <mxGeometry x="842" y="201.99999999999994" width="80" height="114.28571428571426" as="geometry" />
        </mxCell>
        <mxCell id="Pfn347-1Jo6gLOCdynuy-60" value="User Data" style="shape=cylinder3;whiteSpace=wrap;html=1;boundedLbl=1;backgroundOutline=1;size=15;" vertex="1" parent="1">
          <mxGeometry x="852" y="211.99999999999994" width="80" height="114.28571428571426" as="geometry" />
        </mxCell>
      </root>
    </mxGraphModel>
  </diagram>
</mxfile>
